<svg width="12" height="20" viewBox="0 0 12 20" fill="none" xmlns="http://www.w3.org/2000/svg">
<path d="M0.530037 0.862935C1.15861 0.235792 2.17575 0.235792 2.80289 0.862935L10.6815 8.74151C10.6815 8.74151 10.6115 8.67151 10.6858 8.74722L10.8029 8.86151C11.43 9.49008 11.4315 10.5086 10.8029 11.1358L2.80289 19.1358C2.49823 19.4197 2.09528 19.5742 1.67892 19.5669C1.26256 19.5595 0.865304 19.3909 0.570847 19.0964C0.276391 18.802 0.107722 18.4047 0.100376 17.9883C0.0930297 17.572 0.24758 17.169 0.531465 16.8644L7.39289 10.0001L0.528608 3.13579C0.227643 2.83445 0.0585938 2.42597 0.0585938 2.00008C0.0585937 1.57418 0.227643 1.1657 0.528608 0.864364L0.530037 0.862935Z" fill="white"/>
</svg>
