<svg width="12" height="20" viewBox="0 0 12 20" fill="none" xmlns="http://www.w3.org/2000/svg">
<path d="M11.4701 0.862818C11.3208 0.713579 11.1437 0.595196 10.9487 0.514428C10.7537 0.43366 10.5447 0.39209 10.3336 0.39209C10.1226 0.39209 9.9136 0.43366 9.71861 0.514428C9.52362 0.595196 9.34645 0.713579 9.19721 0.862818L1.31864 8.74282C1.31864 8.74282 1.38864 8.67282 1.31435 8.74853L1.19721 8.86282C0.570068 9.49139 0.56864 10.51 1.19721 11.1371L9.19721 19.1371C9.50187 19.421 9.90483 19.5755 10.3212 19.5682C10.7375 19.5608 11.1348 19.3922 11.4293 19.0977C11.7237 18.8033 11.8924 18.406 11.8997 17.9897C11.9071 17.5733 11.7525 17.1703 11.4686 16.8657L4.60721 9.99996L11.4715 3.13568C12.1001 2.50853 12.1001 1.49139 11.4715 0.864247L11.4701 0.862818Z" fill="white"/>
</svg>
